<?xml version="1.0" standalone="no"?>
<!DOCTYPE svg PUBLIC "-//W3C//DTD SVG 20010904//EN"
 "http://www.w3.org/TR/2001/REC-SVG-20010904/DTD/svg10.dtd">
<svg version="1.0" xmlns="http://www.w3.org/2000/svg"
 width="512.000000pt" height="512.000000pt" viewBox="0 0 512.000000 512.000000"
 preserveAspectRatio="xMidYMid meet">
<metadata>
Created by potrace 1.14, written by Peter Selinger 2001-2017
</metadata>
<g transform="translate(0.000000,512.000000) scale(0.100000,-0.100000)"
fill="#000000" stroke="none">
<path d="M2362 5110 c-679 -53 -1319 -382 -1759 -905 -800 -952 -798 -2338 5
-3295 407 -485 973 -793 1627 -886 167 -24 527 -24 685 0 567 86 1061 336
1457 737 395 400 628 866 719 1441 12 74 17 169 17 338 0 261 -17 411 -72 635
-250 1017 -1107 1784 -2146 1919 -146 19 -393 27 -533 16z m497 -871 c677
-115 1221 -647 1373 -1342 20 -89 22 -131 22 -337 0 -259 -11 -338 -75 -531
-85 -258 -218 -469 -418 -670 -200 -200 -414 -334 -669 -418 -191 -63 -274
-75 -527 -76 -204 0 -242 3 -339 23 -604 130 -1081 547 -1280 1121 -251 722
26 1539 664 1966 372 248 804 340 1249 264z"/>
<path d="M2492 3979 c-110 -55 -228 -252 -306 -510 -25 -83 -65 -251 -66 -276
0 -10 95 -13 440 -13 345 0 440 3 440 13 0 6 -11 60 -24 118 -70 308 -196 563
-322 652 -55 39 -107 44 -162 16z"/>
<path d="M1990 3882 c-234 -103 -435 -263 -587 -468 -61 -83 -133 -203 -133
-223 0 -8 87 -11 289 -11 l288 0 18 93 c40 208 123 463 195 594 15 29 25 53
22 52 -4 0 -45 -17 -92 -37z"/>
<path d="M3060 3867 c72 -131 155 -386 195 -594 l18 -93 288 0 c202 0 289 3
289 11 0 19 -72 139 -130 218 -158 213 -356 371 -593 473 -48 21 -89 38 -91
38 -2 0 9 -24 24 -53z"/>
<path d="M1167 2913 c-20 -35 -47 -244 -47 -358 0 -81 22 -264 38 -320 l8 -30
320 -3 319 -2 0 360 0 360 -317 0 c-174 0 -319 -3 -321 -7z"/>
<path d="M2074 2843 c-10 -101 -10 -465 0 -565 l8 -78 478 0 478 0 8 78 c10
100 10 464 0 565 l-8 77 -478 0 -478 0 -8 -77z"/>
<path d="M3315 2560 l0 -360 319 2 320 3 8 30 c16 57 38 241 38 325 0 84 -22
268 -38 325 l-8 30 -320 3 -319 2 0 -360z"/>
<path d="M1270 1929 c0 -20 72 -140 133 -223 117 -158 254 -282 422 -382 72
-43 242 -124 260 -124 2 0 -10 24 -25 53 -72 131 -155 386 -195 595 l-18 92
-288 0 c-202 0 -289 -3 -289 -11z"/>
<path d="M2120 1928 c0 -7 11 -61 24 -119 53 -231 145 -454 235 -566 128 -159
234 -159 362 0 89 111 183 336 235 566 13 58 24 112 24 119 0 9 -95 12 -440
12 -345 0 -440 -3 -440 -12z"/>
<path d="M3251 1830 c-43 -214 -119 -445 -191 -577 -15 -29 -27 -53 -25 -53 1
0 35 13 75 30 236 97 451 267 609 480 59 80 131 200 131 219 0 8 -87 11 -289
11 l-288 0 -22 -110z"/>
</g>
</svg>
